<?xml version="1.0" encoding="utf-8"?>
<!-- Generator: Adobe Illustrator 21.0.0, SVG Export Plug-In . SVG Version: 6.00 Build 0)  -->
<svg version="1.1" id="Camada_1" xmlns="http://www.w3.org/2000/svg" xmlns:xlink="http://www.w3.org/1999/xlink" x="0px" y="0px"
	 viewBox="0 0 169.7 31.3" style="enable-background:new 0 0 169.7 31.3;" xml:space="preserve">
<style type="text/css">
	.st0{fill:#FFFFFF;}
</style>
<g>
	<g>
		<path class="st0" d="M60.8,30.2V1.1h2.1v29.1H60.8z"/>
	</g>
	<g>
		<path class="st0" d="M89.2,2.7c1.7,0.7,3.2,1.7,4.5,3l-4,4c-1.7-1.7-3.7-2.5-6-2.5c-2.3,0-4.3,0.8-6,2.5c-1.7,1.7-2.5,3.7-2.5,6
			c0,2.3,0.8,4.3,2.5,6c1.7,1.7,3.6,2.5,6,2.5c2.3,0,4.3-0.8,6-2.5l4,4c-1.3,1.3-2.8,2.3-4.5,3c-1.7,0.7-3.5,1.1-5.5,1.1
			c-3.9,0-7.2-1.4-10-4.1c-2.8-2.8-4.1-6.1-4.1-10c0-3.9,1.4-7.2,4.1-10c2.8-2.8,6.1-4.1,10-4.1C85.7,1.6,87.5,2,89.2,2.7z"/>
		<path class="st0" d="M119.8,5.7c2.8,2.8,4.1,6.1,4.1,10c0,3.9-1.4,7.2-4.1,10c-2.8,2.8-6.1,4.1-10,4.1c-3.9,0-7.2-1.4-10-4.1
			c-2.8-2.8-4.1-6.1-4.1-10c0-3.9,1.4-7.2,4.1-10c2.8-2.8,6.1-4.1,10-4.1C113.7,1.6,117,3,119.8,5.7z M103.9,9.7
			c-1.7,1.7-2.5,3.7-2.5,6c0,2.3,0.8,4.3,2.5,6c1.7,1.7,3.6,2.5,6,2.5c2.3,0,4.3-0.8,6-2.5c1.7-1.7,2.5-3.6,2.5-6
			c0-2.3-0.8-4.3-2.5-6c-1.7-1.7-3.7-2.5-6-2.5C107.5,7.2,105.5,8.1,103.9,9.7z"/>
		<path class="st0" d="M142.5,17V1.6h5.7v28.2l-16.9-15.4v15.4h-5.7V1.6L142.5,17z"/>
		<path class="st0" d="M168.2,1.6v5.6h-11.3v5.7h8.5v5.6h-8.5v5.6v5.7h-5.7V18.5v-5.6V1.6H168.2z"/>
	</g>
	<g>
		<path class="st0" d="M4.9,15.9H11c0.7,0,1.3-0.1,1.9-0.2c0.6-0.1,1.1-0.4,1.5-0.7c0.4-0.3,0.8-0.7,1-1.3c0.2-0.5,0.4-1.1,0.4-1.9
			c0-0.7-0.1-1.3-0.4-1.8c-0.3-0.5-0.6-0.9-1-1.2c-0.4-0.3-0.9-0.5-1.5-0.7C12.3,8,11.7,8,11.1,8H8.4h-7V1.6h9c0.8,0,1.5,0,2.3,0
			c0.8,0,1.5,0.1,2.3,0.2c0.8,0.1,1.5,0.3,2.2,0.6c0.7,0.3,1.4,0.7,2,1.1c1.2,1,2,2.1,2.6,3.5c0.6,1.4,0.9,2.8,0.9,4.3
			c0,1.1-0.2,2.1-0.5,3.1c-0.3,1-0.8,1.9-1.4,2.7c-0.6,0.8-1.3,1.5-2.2,2c-0.9,0.5-1.9,0.9-3,1.1l7.7,9.7h-8.3L4.9,15.9z"/>
		<path class="st0" d="M54.6,13.9L45,29.2c-0.7,0.3-1.5,0.5-2.4,0.6C41.8,30,41,30,40.1,30c-1.1,0-2.2-0.1-3.2-0.3
			c-1.6-0.4-3.2-1-4.5-1.8C31,27,29.8,26,28.7,24.7c-1-1.2-1.8-2.6-2.4-4.2c-0.6-1.5-0.9-3.2-0.9-4.9c0-2.1,0.4-3.9,1.2-5.7
			c0.8-1.7,1.8-3.2,3.2-4.5c1.3-1.3,2.9-2.2,4.7-2.9c1.8-0.7,3.7-1,5.7-1c1.1,0,2.3,0.1,3.4,0.4c1.1,0.3,2.2,0.7,3.2,1.2
			c1,0.5,2,1.1,2.9,1.9c0.9,0.7,1.7,1.6,2.3,2.5c0.9,1.2,1.5,2.5,1.9,3.8h-4.4h-3.4c-0.7-1.1-1.5-2-2.5-2.6c-1-0.6-2.2-0.9-3.5-0.9
			c-1.1,0-2.1,0.2-3.1,0.6c-0.9,0.4-1.7,1-2.4,1.7c-0.7,0.7-1.2,1.6-1.5,2.5c-0.4,1-0.6,2-0.6,3.1c0,1.1,0.2,2.2,0.5,3.2
			c0.4,1,0.9,1.9,1.5,2.6c0.6,0.7,1.4,1.3,2.4,1.8c0.9,0.4,2,0.7,3.1,0.7c0.2,0,0.3,0,0.4,0c0.1,0,0.3,0,0.4,0l3-4.4h-5.4v-5.6h9.2
			H54.6z"/>
	</g>
</g>
</svg>
