<?xml version="1.0" encoding="utf-8"?>
<!-- Generator: Adobe Illustrator 21.0.0, SVG Export Plug-In . SVG Version: 6.00 Build 0)  -->
<svg version="1.1" id="Camada_1" xmlns="http://www.w3.org/2000/svg" xmlns:xlink="http://www.w3.org/1999/xlink" x="0px" y="0px"
	 viewBox="0 0 195.5 34" style="enable-background:new 0 0 195.5 34;" xml:space="preserve">
<style type="text/css">
	.st0{fill:#FFFFFF;}
</style>
<g>
	<g>
		<path class="st0" d="M69.4,34V0h2.5v34H69.4z"/>
	</g>
	<g>
		<path class="st0" d="M102.7,1.8c2,0.9,3.8,2,5.3,3.5l-4.7,4.7c-2-1.9-4.3-2.9-7-2.9c-2.7,0-5.1,1-7,2.9c-1.9,1.9-2.9,4.3-2.9,7
			c0,2.7,1,5.1,2.9,7c1.9,1.9,4.3,2.9,7,2.9c2.7,0,5.1-1,7-2.9l4.7,4.7c-1.5,1.5-3.3,2.7-5.3,3.6c-2,0.9-4.1,1.3-6.4,1.3
			c-4.5,0-8.4-1.6-11.7-4.8c-3.2-3.2-4.8-7.1-4.8-11.7c0-4.5,1.6-8.4,4.8-11.7c3.2-3.2,7.1-4.9,11.7-4.9C98.5,0.5,100.7,1,102.7,1.8
			z"/>
		<path class="st0" d="M138.5,5.4c3.2,3.2,4.9,7.1,4.9,11.7c0,4.5-1.6,8.4-4.9,11.7c-3.2,3.2-7.1,4.8-11.7,4.8
			c-4.5,0-8.4-1.6-11.7-4.8c-3.2-3.2-4.8-7.1-4.8-11.7c0-4.5,1.6-8.4,4.8-11.7c3.2-3.2,7.1-4.9,11.7-4.9
			C131.4,0.5,135.2,2.1,138.5,5.4z M119.8,10c-1.9,1.9-2.9,4.3-2.9,7c0,2.7,1,5.1,2.9,7c1.9,1.9,4.3,2.9,7,2.9c2.7,0,5.1-1,7-2.9
			c1.9-1.9,2.9-4.3,2.9-7c0-2.7-1-5.1-2.9-7c-1.9-1.9-4.3-2.9-7-2.9C124.1,7.1,121.8,8.1,119.8,10z"/>
		<path class="st0" d="M165.1,18.6V0.5h6.6v33l-19.8-18.1v18.1h-6.6v-33L165.1,18.6z"/>
		<path class="st0" d="M195.1,0.5v6.6h-13.2v6.6h9.9v6.6h-9.9v6.6v6.6h-6.6V20.3v-6.6V0.5H195.1z"/>
	</g>
	<g>
		<path class="st0" d="M4,17.3h7.2c0.8,0,1.5-0.1,2.2-0.2c0.7-0.2,1.3-0.4,1.8-0.8c0.5-0.4,0.9-0.9,1.2-1.5c0.3-0.6,0.4-1.3,0.4-2.2
			c0-0.8-0.1-1.5-0.4-2.1c-0.3-0.6-0.7-1-1.2-1.4c-0.5-0.4-1.1-0.6-1.8-0.8C12.7,8.1,12,8,11.3,8H8.1H0V0.6h10.5c0.9,0,1.8,0,2.7,0
			c0.9,0,1.8,0.1,2.7,0.3c0.9,0.1,1.7,0.4,2.6,0.7c0.8,0.3,1.6,0.8,2.4,1.3c1.4,1.1,2.4,2.5,3.1,4.1c0.7,1.6,1,3.3,1,5
			c0,1.3-0.2,2.5-0.6,3.7c-0.4,1.2-0.9,2.2-1.6,3.2c-0.7,0.9-1.6,1.7-2.6,2.4c-1,0.6-2.2,1.1-3.5,1.3l9,11.3h-9.7L4,17.3z"/>
		<path class="st0" d="M62.2,14.9L51,32.9c-0.9,0.3-1.8,0.5-2.8,0.7c-1,0.2-2,0.2-3,0.2c-1.3,0-2.5-0.1-3.7-0.4
			c-1.9-0.4-3.7-1.1-5.3-2.1c-1.6-1-3-2.2-4.2-3.7c-1.2-1.4-2.1-3.1-2.8-4.9c-0.7-1.8-1-3.7-1-5.8c0-2.4,0.5-4.6,1.4-6.6
			c0.9-2,2.1-3.8,3.7-5.2c1.6-1.5,3.4-2.6,5.5-3.4c2.1-0.8,4.3-1.2,6.7-1.2c1.3,0,2.7,0.2,4,0.5c1.3,0.3,2.6,0.8,3.8,1.4
			c1.2,0.6,2.3,1.3,3.4,2.2c1.1,0.9,2,1.8,2.7,2.9c1,1.4,1.7,2.9,2.2,4.4h-5.2h-4c-0.8-1.3-1.8-2.4-3-3.1C48,8,46.6,7.7,45.1,7.7
			c-1.3,0-2.5,0.3-3.6,0.8c-1.1,0.5-2,1.2-2.8,2c-0.8,0.8-1.4,1.8-1.8,3c-0.4,1.1-0.6,2.3-0.6,3.6c0,1.3,0.2,2.5,0.6,3.7
			c0.4,1.2,1,2.2,1.8,3.1c0.8,0.9,1.7,1.6,2.8,2.1c1.1,0.5,2.3,0.8,3.7,0.8c0.2,0,0.3,0,0.5,0c0.1,0,0.3,0,0.4,0l3.5-5.1h-6.3v-6.6
			h10.8H62.2z"/>
	</g>
</g>
</svg>
